<?xml version="1.0" encoding="UTF-8" standalone="no"?>
<svg
   class="card"
   face="7S"
   height="2.5in"
   preserveAspectRatio="none"
   viewBox="-120 -168 336 240"
   width="3.5in"
   version="1.1"
   id="svg3587"
   sodipodi:docname="7Sr.svg"
   inkscape:version="1.1.2 (b8e25be833, 2022-02-05)"
   xmlns:inkscape="http://www.inkscape.org/namespaces/inkscape"
   xmlns:sodipodi="http://sodipodi.sourceforge.net/DTD/sodipodi-0.dtd"
   xmlns:xlink="http://www.w3.org/1999/xlink"
   xmlns="http://www.w3.org/2000/svg"
   xmlns:svg="http://www.w3.org/2000/svg">
  <sodipodi:namedview
     id="namedview3589"
     pagecolor="#ffffff"
     bordercolor="#666666"
     borderopacity="1.0"
     inkscape:pageshadow="2"
     inkscape:pageopacity="0.0"
     inkscape:pagecheckerboard="0"
     inkscape:document-units="in"
     showgrid="false"
     inkscape:zoom="1.4761905"
     inkscape:cx="168.33871"
     inkscape:cy="119.90323"
     inkscape:window-width="1366"
     inkscape:window-height="705"
     inkscape:window-x="-8"
     inkscape:window-y="-8"
     inkscape:window-maximized="1"
     inkscape:current-layer="svg3587" />
  <defs
     id="defs3567">
    <symbol
       id="SS7"
       viewBox="-600 -600 1200 1200"
       preserveAspectRatio="xMinYMid">
      <path
         d="m 0,-500 c 350,250 460,400 460,600 0,200 -200,240 -250,240 -100,0 -155,-55 -110,-40 l 30,200 h -260 l 30,-200 c 45,-15 -10,40 -110,40 -50,0 -250,-40 -250,-240 0,-200 110,-350 460,-600 z"
         fill="#000000"
         id="path3564" />
    </symbol>
  </defs>
  <rect
     width="239"
     height="335"
     x="-71.5"
     y="-119.5"
     rx="12"
     ry="12"
     fill="#ffffff"
     stroke="#000000"
     id="rect3569"
     transform="rotate(-90)" />
  <use
     xlink:href="#SS7"
     height="70"
     width="70"
     x="-97.500999"
     y="-145.50101"
     id="use3571"
     transform="rotate(-90,0,-48)" />
  <use
     xlink:href="#SS7"
     height="70"
     width="70"
     x="27.500999"
     y="-145.50101"
     id="use3573"
     transform="rotate(-90,0,-48)" />
  <use
     xlink:href="#SS7"
     height="70"
     width="70"
     x="-97.500999"
     y="-35"
     id="use3575"
     transform="rotate(-90,0,-48)" />
  <use
     xlink:href="#SS7"
     height="70"
     width="70"
     x="27.500999"
     y="-35"
     id="use3577"
     transform="rotate(-90,0,-48)" />
  <use
     xlink:href="#SS7"
     height="70"
     width="70"
     x="-35"
     y="-123.4"
     id="use3579"
     transform="rotate(-90,0,-48)" />
  <g
     transform="rotate(90,48,0)"
     id="g3585">
    <use
       xlink:href="#SS7"
       height="70"
       width="70"
       x="-97.500999"
       y="-145.50101"
       id="use3581" />
    <use
       xlink:href="#SS7"
       height="70"
       width="70"
       x="27.500999"
       y="-145.50101"
       id="use3583" />
  </g>
</svg>
