<?xml version="1.0" encoding="UTF-8" standalone="no"?>
<svg
   class="card"
   face="4H"
   height="2.5in"
   preserveAspectRatio="none"
   viewBox="-120 -168 336 240"
   width="3.5in"
   version="1.1"
   id="svg6555"
   sodipodi:docname="4Hr.svg"
   inkscape:version="1.1.2 (b8e25be833, 2022-02-05)"
   xmlns:inkscape="http://www.inkscape.org/namespaces/inkscape"
   xmlns:sodipodi="http://sodipodi.sourceforge.net/DTD/sodipodi-0.dtd"
   xmlns:xlink="http://www.w3.org/1999/xlink"
   xmlns="http://www.w3.org/2000/svg"
   xmlns:svg="http://www.w3.org/2000/svg">
  <sodipodi:namedview
     id="namedview6557"
     pagecolor="#ffffff"
     bordercolor="#666666"
     borderopacity="1.0"
     inkscape:pageshadow="2"
     inkscape:pageopacity="0.0"
     inkscape:pagecheckerboard="0"
     inkscape:document-units="in"
     showgrid="false"
     inkscape:zoom="1.4761905"
     inkscape:cx="168.33871"
     inkscape:cy="119.90323"
     inkscape:window-width="1366"
     inkscape:window-height="705"
     inkscape:window-x="-8"
     inkscape:window-y="-8"
     inkscape:window-maximized="1"
     inkscape:current-layer="svg6555" />
  <defs
     id="defs6541">
    <symbol
       id="SH4"
       viewBox="-600 -600 1200 1200"
       preserveAspectRatio="xMinYMid">
      <path
         d="m 0,-300 a 241.91941,241.91941 0 0 1 460,150 C 400,0 200,300 0,500 -200,300 -400,0 -460,-150 A 241.91941,241.91941 0 0 1 0,-300 Z"
         fill="#ff0000"
         id="path6538" />
    </symbol>
  </defs>
  <rect
     width="239"
     height="335"
     x="-71.5"
     y="-119.5"
     rx="12"
     ry="12"
     fill="#ffffff"
     stroke="#000000"
     id="rect6543"
     transform="rotate(-90)" />
  <use
     xlink:href="#SH4"
     height="70"
     width="70"
     x="-97.500999"
     y="-146.463"
     id="use6545"
     transform="rotate(-90,0,-48)" />
  <use
     xlink:href="#SH4"
     height="70"
     width="70"
     x="27.500999"
     y="-146.463"
     id="use6547"
     transform="rotate(-90,0,-48)" />
  <g
     transform="rotate(90,48,0)"
     id="g6553">
    <use
       xlink:href="#SH4"
       height="70"
       width="70"
       x="-97.500999"
       y="-146.463"
       id="use6549" />
    <use
       xlink:href="#SH4"
       height="70"
       width="70"
       x="27.500999"
       y="-146.463"
       id="use6551" />
  </g>
</svg>
