<?xml version="1.0" encoding="UTF-8" standalone="no"?>
<svg
   class="card"
   face="8C"
   height="2.5in"
   preserveAspectRatio="none"
   viewBox="-120 -168 336 240"
   width="3.5in"
   version="1.1"
   id="svg3351"
   sodipodi:docname="8Cr.svg"
   inkscape:version="1.1.2 (b8e25be833, 2022-02-05)"
   xmlns:inkscape="http://www.inkscape.org/namespaces/inkscape"
   xmlns:sodipodi="http://sodipodi.sourceforge.net/DTD/sodipodi-0.dtd"
   xmlns:xlink="http://www.w3.org/1999/xlink"
   xmlns="http://www.w3.org/2000/svg"
   xmlns:svg="http://www.w3.org/2000/svg">
  <sodipodi:namedview
     id="namedview3353"
     pagecolor="#ffffff"
     bordercolor="#666666"
     borderopacity="1.0"
     inkscape:pageshadow="2"
     inkscape:pageopacity="0.0"
     inkscape:pagecheckerboard="0"
     inkscape:document-units="in"
     showgrid="false"
     inkscape:zoom="1.4761905"
     inkscape:cx="168.33871"
     inkscape:cy="119.90323"
     inkscape:window-width="1366"
     inkscape:window-height="705"
     inkscape:window-x="-8"
     inkscape:window-y="-8"
     inkscape:window-maximized="1"
     inkscape:current-layer="svg3351" />
  <defs
     id="defs3329">
    <symbol
       id="SC8"
       viewBox="-600 -600 1200 1200"
       preserveAspectRatio="xMinYMid">
      <path
         d="M -100,500 H 100 V 340 a 260,260 0 1 0 100,-490 230,230 0 1 0 -400,0 260,260 0 1 0 100,490 z"
         fill="#000000"
         id="path3326" />
    </symbol>
  </defs>
  <rect
     width="239"
     height="335"
     x="-71.5"
     y="-119.5"
     rx="12"
     ry="12"
     fill="#ffffff"
     stroke="#000000"
     id="rect3331"
     transform="rotate(-90)" />
  <use
     xlink:href="#SC8"
     height="70"
     width="70"
     x="-97.500999"
     y="-145.67599"
     id="use3333"
     transform="rotate(-90,0,-48)" />
  <use
     xlink:href="#SC8"
     height="70"
     width="70"
     x="27.500999"
     y="-145.67599"
     id="use3335"
     transform="rotate(-90,0,-48)" />
  <use
     xlink:href="#SC8"
     height="70"
     width="70"
     x="-35"
     y="-123.54"
     id="use3337"
     transform="rotate(-90,0,-48)" />
  <use
     xlink:href="#SC8"
     height="70"
     width="70"
     x="-97.500999"
     y="-35"
     id="use3339"
     transform="rotate(-90,0,-48)" />
  <use
     xlink:href="#SC8"
     height="70"
     width="70"
     x="27.500999"
     y="-35"
     id="use3341"
     transform="rotate(-90,0,-48)" />
  <g
     transform="rotate(90,48,0)"
     id="g3349">
    <use
       xlink:href="#SC8"
       height="70"
       width="70"
       x="-97.500999"
       y="-145.67599"
       id="use3343" />
    <use
       xlink:href="#SC8"
       height="70"
       width="70"
       x="27.500999"
       y="-145.67599"
       id="use3345" />
    <use
       xlink:href="#SC8"
       height="70"
       width="70"
       x="-35"
       y="-123.54"
       id="use3347" />
  </g>
</svg>
