<?xml version="1.0" encoding="UTF-8" standalone="no"?>
<svg
   class="card"
   face="AS"
   height="2.5in"
   preserveAspectRatio="none"
   viewBox="-120 -168 336 240"
   width="3.5in"
   version="1.1"
   id="svg725"
   sodipodi:docname="ASr.svg"
   inkscape:version="1.1.2 (b8e25be833, 2022-02-05)"
   xmlns:inkscape="http://www.inkscape.org/namespaces/inkscape"
   xmlns:sodipodi="http://sodipodi.sourceforge.net/DTD/sodipodi-0.dtd"
   xmlns:xlink="http://www.w3.org/1999/xlink"
   xmlns="http://www.w3.org/2000/svg"
   xmlns:svg="http://www.w3.org/2000/svg">
  <sodipodi:namedview
     id="namedview727"
     pagecolor="#ffffff"
     bordercolor="#666666"
     borderopacity="1.0"
     inkscape:pageshadow="2"
     inkscape:pageopacity="0.0"
     inkscape:pagecheckerboard="0"
     inkscape:document-units="in"
     showgrid="false"
     inkscape:zoom="1.4761905"
     inkscape:cx="168.33871"
     inkscape:cy="119.90323"
     inkscape:window-width="1366"
     inkscape:window-height="705"
     inkscape:window-x="-8"
     inkscape:window-y="-8"
     inkscape:window-maximized="1"
     inkscape:current-layer="svg725" />
  <defs
     id="defs709">
    <symbol
       id="SSA"
       viewBox="-600 -600 1200 1200"
       preserveAspectRatio="xMinYMid">
      <path
         d="m 0,-500 c 350,250 460,400 460,600 0,200 -200,240 -250,240 -100,0 -155,-55 -110,-40 l 30,200 h -260 l 30,-200 c 45,-15 -10,40 -110,40 -50,0 -250,-40 -250,-240 0,-200 110,-350 460,-600 z"
         id="path706" />
    </symbol>
  </defs>
  <rect
     width="239"
     height="335"
     x="-71.5"
     y="-119.5"
     rx="12"
     ry="12"
     fill="#ffffff"
     stroke="#000000"
     id="rect711"
     transform="rotate(-90)" />
  <use
     xlink:href="#SSA"
     fill="#000000"
     height="216"
     width="216"
     x="-108"
     y="-108"
     stroke="#000000"
     stroke-width="100"
     stroke-dasharray="100, 100"
     stroke-linecap="round"
     id="use713"
     transform="rotate(-90,0,-48)" />
  <use
     xlink:href="#SSA"
     fill="#000000"
     height="216"
     width="216"
     x="-108"
     y="-108"
     stroke="#ffffff"
     stroke-width="50"
     id="use715"
     transform="rotate(-90,0,-48)" />
  <use
     xlink:href="#SSA"
     fill="#000000"
     height="216"
     width="216"
     x="-108"
     y="-108"
     id="use717"
     transform="rotate(-90,0,-48)" />
  <text
     font-size="20px"
     font-family="Bariol"
     fill="#000000"
     text-anchor="middle"
     y="174"
     id="text719"
     transform="rotate(-90)"
     x="48">Michael Saucedo</text>
  <text
     font-size="20px"
     font-family="Bariol"
     fill="#000000"
     text-anchor="middle"
     y="194"
     id="text721"
     transform="rotate(-90)"
     x="48">2022</text>
  <g
     transform="rotate(90,48,0)"
     id="g723" />
</svg>
