<?xml version="1.0" encoding="UTF-8" standalone="no"?>
<svg xmlns="http://www.w3.org/2000/svg" xmlns:xlink="http://www.w3.org/1999/xlink" class="card" face="9C" height="3.5in" preserveAspectRatio="none" viewBox="-120 -168 240 336" width="2.5in"><defs><symbol id="SC9" viewBox="-600 -600 1200 1200" preserveAspectRatio="xMinYMid"><path d="M-100 500L100 500L100 340A260 260 0 1 0 200 -150A230 230 0 1 0 -200 -150A260 260 0 1 0 -100 340Z" fill="black"></path></symbol></defs><rect width="239" height="335" x="-119.5" y="-167.5" rx="12" ry="12" fill="#ffffe8" stroke="black"></rect><use xlink:href="#SC9" height="70" width="70" x="-97.501" y="-145.676"></use><use xlink:href="#SC9" height="70" width="70" x="27.501" y="-145.676"></use><use xlink:href="#SC9" height="70" width="70" x="-97.501" y="-71.892"></use><use xlink:href="#SC9" height="70" width="70" x="27.501" y="-71.892"></use><use xlink:href="#SC9" height="70" width="70" x="-35" y="-42"></use><g transform="rotate(180)"><use xlink:href="#SC9" height="70" width="70" x="-97.501" y="-145.676"></use><use xlink:href="#SC9" height="70" width="70" x="27.501" y="-145.676"></use><use xlink:href="#SC9" height="70" width="70" x="-97.501" y="-71.892"></use><use xlink:href="#SC9" height="70" width="70" x="27.501" y="-71.892"></use></g></svg>