<?xml version="1.0" encoding="UTF-8" standalone="no"?>
<svg xmlns="http://www.w3.org/2000/svg" xmlns:xlink="http://www.w3.org/1999/xlink" class="card" face="AS" height="3.5in" preserveAspectRatio="none" viewBox="-120 -168 240 336" width="2.5in"><defs><symbol id="SSA" viewBox="-600 -600 1200 1200" preserveAspectRatio="xMinYMid"><path d="M0 -500C350 -250 460 -100 460 100C460 300 260 340 210 340C110 340 55 285 100 300L130 500L-130 500L-100 300C-55 285 -110 340 -210 340C-260 340 -460 300 -460 100C-460 -100 -350 -250 0 -500Z"></path></symbol></defs><rect width="239" height="335" x="-119.5" y="-167.5" rx="12" ry="12" fill="#ffffe8" stroke="black"></rect><use xlink:href="#SSA" fill="black" height="216" width="216" x="-108" y="-108" stroke="black" stroke-width="100" stroke-dasharray="100,100" stroke-linecap="round"></use><use xlink:href="#SSA" fill="black" height="216" width="216" x="-108" y="-108" stroke="#ffffe8" stroke-width="50"></use><use xlink:href="#SSA" fill="black" height="216" width="216" x="-108" y="-108"></use><text font-size="20" font-family="Bariol" fill="black" text-anchor="middle" y="126">Saucedo</text><text font-size="20" font-family="Bariol" fill="black" text-anchor="middle" y="146">M</text><g transform="rotate(180)"></g></svg>