<?xml version="1.0" encoding="UTF-8" standalone="no"?>
<svg
   class="card"
   face="2J"
   height="2.5in"
   preserveAspectRatio="none"
   viewBox="-120 -168 336 240"
   width="3.5in"
   version="1.1"
   id="svg13719"
   sodipodi:docname="2Jr.svg"
   inkscape:version="1.1.2 (b8e25be833, 2022-02-05)"
   xmlns:inkscape="http://www.inkscape.org/namespaces/inkscape"
   xmlns:sodipodi="http://sodipodi.sourceforge.net/DTD/sodipodi-0.dtd"
   xmlns:xlink="http://www.w3.org/1999/xlink"
   xmlns="http://www.w3.org/2000/svg"
   xmlns:svg="http://www.w3.org/2000/svg">
  <sodipodi:namedview
     id="namedview13721"
     pagecolor="#ffffff"
     bordercolor="#666666"
     borderopacity="1.0"
     inkscape:pageshadow="2"
     inkscape:pageopacity="0.0"
     inkscape:pagecheckerboard="0"
     inkscape:document-units="in"
     showgrid="false"
     inkscape:zoom="1.4761905"
     inkscape:cx="168.33871"
     inkscape:cy="119.90323"
     inkscape:window-width="1366"
     inkscape:window-height="705"
     inkscape:window-x="-8"
     inkscape:window-y="-8"
     inkscape:window-maximized="1"
     inkscape:current-layer="svg13719" />
  <defs
     id="defs13711">
    <symbol
       id="J22"
       preserveAspectRatio="none"
       viewBox="0 0 1300 2000">
      <path
         stroke="#000000"
         stroke-linecap="round"
         stroke-linejoin="round"
         stroke-width="6"
         fill="none"
         d="M 317.05664,1294.416 100,1620 l 220,-60 40,240 140,-200 160,200 40,-200 180,180 60,-220 260,60 -236.67969,-304.3027 M 1241.1987,534.58948 a 75,75 0 0 1 -75,75 75,75 0 0 1 -75,-75 75,75 0 0 1 75,-75 75,75 0 0 1 75,75 z M 980.11493,234.09686 a 75,75 0 0 1 -75,75 75,75 0 0 1 -75,-75 75,75 0 0 1 75,-75 75,75 0 0 1 75,75 z M 190.29556,431.1412 a 75,75 0 0 1 -75,75 75,75 0 0 1 -74.999997,-75 75,75 0 0 1 74.999997,-75 75,75 0 0 1 75,75 z M 924.3457,650.27148 c 42.40088,-50.45397 91.5936,-93.35356 167.5059,-106.53906 -0.4037,-3.03138 -0.6215,-6.0846 -0.6524,-9.14258 0.03,-15.96068 5.1503,-31.4957 14.6172,-44.3457 C 1026.3517,437.47479 931.12146,446.83238 840,440 761.98041,388.07638 804.10248,338.17898 853.51758,288.4043 842.40414,277.84182 834.79487,264.12701 831.71484,249.10742 687.94378,262.65874 542.4812,256.33752 420,520 369.08062,331.38331 278.61481,370.61289 187.77148,412.01367 c 1.66108,6.24042 2.50924,12.66925 2.52344,19.12695 -0.0209,17.1896 -5.94587,33.85038 -16.7832,47.19336 66.82714,55.25532 117.5686,127.8306 155.76953,213.91016 M 384.88867,1140 c 51.89013,98.343 153.91815,159.9189 265.11133,160 111.19809,-0.076 213.23257,-61.6527 265.125,-160 M 1095,1000 a 445,445 0 0 1 -445,445 445,445 0 0 1 -445,-445 445,445 0 0 1 445,-445 445,445 0 0 1 445,445 z"
         id="path13705" />
    </symbol>
    <symbol
       id="J21"
       preserveAspectRatio="none"
       viewBox="0 0 1300 2000">
      <path
         fill="#000000"
         d="m 879.65521,937.6026 a 40,40 0 0 1 -40,40 40,40 0 0 1 -40,-40 40,40 0 0 1 40,-40 40,40 0 0 1 40,40 z m -379.31039,0 a 40,40 0 0 1 -40,40 40,40 0 0 1 -40,-40 40,40 0 0 1 40,-40 40,40 0 0 1 40,40 z"
         id="path13708" />
    </symbol>
  </defs>
  <rect
     width="239"
     height="335"
     x="-71.5"
     y="-119.5"
     rx="12"
     ry="12"
     fill="#ffffff"
     stroke="#000000"
     id="rect13713"
     transform="rotate(-90)" />
  <use
     width="202.8"
     height="312"
     x="-101.4"
     y="-156"
     xlink:href="#J21"
     id="use13715"
     transform="rotate(-90,0,-48)" />
  <use
     width="202.8"
     height="312"
     x="-101.4"
     y="-156"
     xlink:href="#J22"
     id="use13717"
     transform="rotate(-90,0,-48)" />
</svg>
