<?xml version="1.0" encoding="UTF-8" standalone="no"?>
<svg
   class="card"
   face="5D"
   height="2.5in"
   preserveAspectRatio="none"
   viewBox="-120 -168 336 240"
   width="3.5in"
   version="1.1"
   id="svg11043"
   sodipodi:docname="5Dr.svg"
   inkscape:version="1.1.2 (b8e25be833, 2022-02-05)"
   xmlns:inkscape="http://www.inkscape.org/namespaces/inkscape"
   xmlns:sodipodi="http://sodipodi.sourceforge.net/DTD/sodipodi-0.dtd"
   xmlns:xlink="http://www.w3.org/1999/xlink"
   xmlns="http://www.w3.org/2000/svg"
   xmlns:svg="http://www.w3.org/2000/svg">
  <sodipodi:namedview
     id="namedview11045"
     pagecolor="#ffffff"
     bordercolor="#666666"
     borderopacity="1.0"
     inkscape:pageshadow="2"
     inkscape:pageopacity="0.0"
     inkscape:pagecheckerboard="0"
     inkscape:document-units="in"
     showgrid="false"
     inkscape:zoom="1.4761905"
     inkscape:cx="168.33871"
     inkscape:cy="119.90323"
     inkscape:window-width="1366"
     inkscape:window-height="705"
     inkscape:window-x="-8"
     inkscape:window-y="-8"
     inkscape:window-maximized="1"
     inkscape:current-layer="svg11043" />
  <defs
     id="defs11019">
    <symbol
       id="SD5"
       viewBox="-600 -600 1200 1200"
       preserveAspectRatio="xMinYMid">
      <path
         d="M -400,0 C -350,0 0,-450 0,-500 0,-450 350,0 400,0 350,0 0,450 0,500 0,450 -350,0 -400,0 Z"
         fill="#ff0000"
         id="path11013" />
    </symbol>
    <symbol
       id="VD5"
       viewBox="-500 -500 1000 1000"
       preserveAspectRatio="xMinYMid">
      <path
         d="m 170,-460 h -345 l -35,345 c 0,0 10,-85 210,-85 100,0 255,120 255,320 0,200 -75,340 -275,340 -200,0 -235,-175 -235,-175"
         stroke="#ff0000"
         stroke-width="80"
         stroke-linecap="square"
         stroke-miterlimit="1.5"
         fill="none"
         id="path11016" />
    </symbol>
  </defs>
  <rect
     width="239"
     height="335"
     x="-71.5"
     y="-119.5"
     rx="12"
     ry="12"
     fill="#ffffff"
     stroke="#000000"
     id="rect11021"
     transform="rotate(-90)" />
  <use
     xlink:href="#VD5"
     height="32"
     width="32"
     x="-114.4"
     y="-156"
     id="use11023"
     transform="rotate(-90,0,-48)" />
  <use
     xlink:href="#SD5"
     height="26.768999"
     width="26.768999"
     x="-111.784"
     y="-119"
     id="use11025"
     transform="rotate(-90,0,-48)" />
  <use
     xlink:href="#SD5"
     height="70"
     width="70"
     x="-87.500999"
     y="-135.50101"
     id="use11027"
     transform="rotate(-90,0,-48)" />
  <use
     xlink:href="#SD5"
     height="70"
     width="70"
     x="17.500999"
     y="-135.50101"
     id="use11029"
     transform="rotate(-90,0,-48)" />
  <use
     xlink:href="#SD5"
     height="70"
     width="70"
     x="-35"
     y="-35"
     id="use11031"
     transform="rotate(-90,0,-48)" />
  <g
     transform="rotate(90,48,0)"
     id="g11041">
    <use
       xlink:href="#VD5"
       height="32"
       width="32"
       x="-114.4"
       y="-156"
       id="use11033" />
    <use
       xlink:href="#SD5"
       height="26.768999"
       width="26.768999"
       x="-111.784"
       y="-119"
       id="use11035" />
    <use
       xlink:href="#SD5"
       height="70"
       width="70"
       x="-87.500999"
       y="-135.50101"
       id="use11037" />
    <use
       xlink:href="#SD5"
       height="70"
       width="70"
       x="17.500999"
       y="-135.50101"
       id="use11039" />
  </g>
</svg>
