<?xml version="1.0" encoding="UTF-8" standalone="no"?>
<svg
   class="card"
   face="5S"
   height="2.5in"
   preserveAspectRatio="none"
   viewBox="-120 -168 336 240"
   width="3.5in"
   version="1.1"
   id="svg10537"
   sodipodi:docname="5Sr.svg"
   inkscape:version="1.1.2 (b8e25be833, 2022-02-05)"
   xmlns:inkscape="http://www.inkscape.org/namespaces/inkscape"
   xmlns:sodipodi="http://sodipodi.sourceforge.net/DTD/sodipodi-0.dtd"
   xmlns:xlink="http://www.w3.org/1999/xlink"
   xmlns="http://www.w3.org/2000/svg"
   xmlns:svg="http://www.w3.org/2000/svg">
  <sodipodi:namedview
     id="namedview10539"
     pagecolor="#ffffff"
     bordercolor="#666666"
     borderopacity="1.0"
     inkscape:pageshadow="2"
     inkscape:pageopacity="0.0"
     inkscape:pagecheckerboard="0"
     inkscape:document-units="in"
     showgrid="false"
     inkscape:zoom="1.4761905"
     inkscape:cx="168.33871"
     inkscape:cy="119.90323"
     inkscape:window-width="1366"
     inkscape:window-height="705"
     inkscape:window-x="-8"
     inkscape:window-y="-8"
     inkscape:window-maximized="1"
     inkscape:current-layer="svg10537" />
  <defs
     id="defs10513">
    <symbol
       id="SS5"
       viewBox="-600 -600 1200 1200"
       preserveAspectRatio="xMinYMid">
      <path
         d="m 0,-500 c 100,250 355,400 355,685 a 150,150 0 0 1 -300,0 10,10 0 0 0 -20,0 c 0,200 50,215 95,315 h -260 c 45,-100 95,-115 95,-315 a 10,10 0 0 0 -20,0 150,150 0 0 1 -300,0 c 0,-285 255,-435 355,-685 z"
         fill="#000000"
         id="path10507" />
    </symbol>
    <symbol
       id="VS5"
       viewBox="-500 -500 1000 1000"
       preserveAspectRatio="xMinYMid">
      <path
         d="m 170,-460 h -345 l -35,345 c 0,0 10,-85 210,-85 100,0 255,120 255,320 0,200 -75,340 -275,340 -200,0 -235,-175 -235,-175"
         stroke="#000000"
         stroke-width="80"
         stroke-linecap="square"
         stroke-miterlimit="1.5"
         fill="none"
         id="path10510" />
    </symbol>
  </defs>
  <rect
     width="239"
     height="335"
     x="-71.5"
     y="-119.5"
     rx="12"
     ry="12"
     fill="#ffffff"
     stroke="#000000"
     id="rect10515"
     transform="rotate(-90)" />
  <use
     xlink:href="#VS5"
     height="32"
     width="32"
     x="-114.4"
     y="-156"
     id="use10517"
     transform="rotate(-90,0,-48)" />
  <use
     xlink:href="#SS5"
     height="26.768999"
     width="26.768999"
     x="-111.784"
     y="-119"
     id="use10519"
     transform="rotate(-90,0,-48)" />
  <use
     xlink:href="#SS5"
     height="70"
     width="70"
     x="-87.500999"
     y="-135.50101"
     id="use10521"
     transform="rotate(-90,0,-48)" />
  <use
     xlink:href="#SS5"
     height="70"
     width="70"
     x="17.500999"
     y="-135.50101"
     id="use10523"
     transform="rotate(-90,0,-48)" />
  <use
     xlink:href="#SS5"
     height="70"
     width="70"
     x="-35"
     y="-35"
     id="use10525"
     transform="rotate(-90,0,-48)" />
  <g
     transform="rotate(90,48,0)"
     id="g10535">
    <use
       xlink:href="#VS5"
       height="32"
       width="32"
       x="-114.4"
       y="-156"
       id="use10527" />
    <use
       xlink:href="#SS5"
       height="26.768999"
       width="26.768999"
       x="-111.784"
       y="-119"
       id="use10529" />
    <use
       xlink:href="#SS5"
       height="70"
       width="70"
       x="-87.500999"
       y="-135.50101"
       id="use10531" />
    <use
       xlink:href="#SS5"
       height="70"
       width="70"
       x="17.500999"
       y="-135.50101"
       id="use10533" />
  </g>
</svg>
