<?xml version="1.0" encoding="UTF-8" standalone="no"?>
<svg
   class="card"
   face="TS"
   height="2.5in"
   preserveAspectRatio="none"
   viewBox="-120 -168 336 240"
   width="3.5in"
   version="1.1"
   id="svg42"
   sodipodi:docname="TSr.svg"
   inkscape:version="1.1.2 (b8e25be833, 2022-02-05)"
   xmlns:inkscape="http://www.inkscape.org/namespaces/inkscape"
   xmlns:sodipodi="http://sodipodi.sourceforge.net/DTD/sodipodi-0.dtd"
   xmlns:xlink="http://www.w3.org/1999/xlink"
   xmlns="http://www.w3.org/2000/svg"
   xmlns:svg="http://www.w3.org/2000/svg">
  <sodipodi:namedview
     id="namedview44"
     pagecolor="#ffffff"
     bordercolor="#666666"
     borderopacity="1.0"
     inkscape:pageshadow="2"
     inkscape:pageopacity="0.0"
     inkscape:pagecheckerboard="0"
     inkscape:document-units="in"
     showgrid="false"
     inkscape:zoom="1.5446429"
     inkscape:cx="168"
     inkscape:cy="120.41618"
     inkscape:window-width="1366"
     inkscape:window-height="705"
     inkscape:window-x="-8"
     inkscape:window-y="-8"
     inkscape:window-maximized="1"
     inkscape:current-layer="svg42" />
  <defs
     id="defs8">
    <symbol
       id="SST"
       viewBox="-600 -600 1200 1200"
       preserveAspectRatio="xMinYMid">
      <path
         d="m 0,-500 c 100,250 355,400 355,685 a 150,150 0 0 1 -300,0 10,10 0 0 0 -20,0 c 0,200 50,215 95,315 h -260 c 45,-100 95,-115 95,-315 a 10,10 0 0 0 -20,0 150,150 0 0 1 -300,0 c 0,-285 255,-435 355,-685 z"
         fill="#000000"
         id="path2" />
    </symbol>
    <symbol
       id="VST"
       viewBox="-500 -500 1000 1000"
       preserveAspectRatio="xMinYMid">
      <path
         d="M -260,430 V -430 M -50,0 v -310 a 150,150 0 0 1 300,0 v 620 a 150,150 0 0 1 -300,0 z"
         stroke="#000000"
         stroke-width="80"
         stroke-linecap="square"
         stroke-miterlimit="1.5"
         fill="none"
         id="path5" />
    </symbol>
  </defs>
  <rect
     width="239"
     height="335"
     x="-167.5"
     y="-215.5"
     rx="12"
     ry="12"
     fill="#ffffff"
     stroke="#000000"
     id="rect10"
     transform="rotate(90)" />
  <use
     xlink:href="#VST"
     height="32"
     width="32"
     x="-114.4"
     y="-156"
     id="use12"
     transform="rotate(90,48,0)" />
  <use
     xlink:href="#SST"
     height="26.768999"
     width="26.768999"
     x="-111.784"
     y="-119"
     id="use14"
     transform="rotate(90,48,0)" />
  <use
     xlink:href="#SST"
     height="70"
     width="70"
     x="-87.500999"
     y="-135.50101"
     id="use16"
     transform="rotate(90,48,0)" />
  <use
     xlink:href="#SST"
     height="70"
     width="70"
     x="17.500999"
     y="-135.50101"
     id="use18"
     transform="rotate(90,48,0)" />
  <use
     xlink:href="#SST"
     height="70"
     width="70"
     x="-87.500999"
     y="-68.5"
     id="use20"
     transform="rotate(90,48,0)" />
  <use
     xlink:href="#SST"
     height="70"
     width="70"
     x="17.500999"
     y="-68.5"
     id="use22"
     transform="rotate(90,48,0)" />
  <use
     xlink:href="#SST"
     height="70"
     width="70"
     x="-35"
     y="-102"
     id="use24"
     transform="rotate(90,48,0)" />
  <g
     transform="rotate(-90,0,-48)"
     id="g40">
    <use
       xlink:href="#VST"
       height="32"
       width="32"
       x="-114.4"
       y="-156"
       id="use26" />
    <use
       xlink:href="#SST"
       height="26.768999"
       width="26.768999"
       x="-111.784"
       y="-119"
       id="use28" />
    <use
       xlink:href="#SST"
       height="70"
       width="70"
       x="-87.500999"
       y="-135.50101"
       id="use30" />
    <use
       xlink:href="#SST"
       height="70"
       width="70"
       x="17.500999"
       y="-135.50101"
       id="use32" />
    <use
       xlink:href="#SST"
       height="70"
       width="70"
       x="-87.500999"
       y="-68.5"
       id="use34" />
    <use
       xlink:href="#SST"
       height="70"
       width="70"
       x="17.500999"
       y="-68.5"
       id="use36" />
    <use
       xlink:href="#SST"
       height="70"
       width="70"
       x="-35"
       y="-102"
       id="use38" />
  </g>
</svg>
