<?xml version="1.0" encoding="UTF-8" standalone="no"?>
<svg
   class="card"
   face="7C"
   height="2.5in"
   preserveAspectRatio="none"
   viewBox="-120 -168 336 240"
   width="3.5in"
   version="1.1"
   id="svg9250"
   sodipodi:docname="7Cr.svg"
   inkscape:version="1.1.2 (b8e25be833, 2022-02-05)"
   xmlns:inkscape="http://www.inkscape.org/namespaces/inkscape"
   xmlns:sodipodi="http://sodipodi.sourceforge.net/DTD/sodipodi-0.dtd"
   xmlns:xlink="http://www.w3.org/1999/xlink"
   xmlns="http://www.w3.org/2000/svg"
   xmlns:svg="http://www.w3.org/2000/svg">
  <sodipodi:namedview
     id="namedview9252"
     pagecolor="#ffffff"
     bordercolor="#666666"
     borderopacity="1.0"
     inkscape:pageshadow="2"
     inkscape:pageopacity="0.0"
     inkscape:pagecheckerboard="0"
     inkscape:document-units="in"
     showgrid="false"
     inkscape:zoom="1.4761905"
     inkscape:cx="168.33871"
     inkscape:cy="119.90323"
     inkscape:window-width="1366"
     inkscape:window-height="705"
     inkscape:window-x="-8"
     inkscape:window-y="-8"
     inkscape:window-maximized="1"
     inkscape:current-layer="svg9250" />
  <defs
     id="defs9222">
    <symbol
       id="SC7"
       viewBox="-600 -600 1200 1200"
       preserveAspectRatio="xMinYMid">
      <path
         d="m 30,150 c 5,235 55,250 100,350 H -130 C -85,400 -35,385 -30,150 a 10,10 0 0 0 -20,0 210,210 0 1 1 -74,-201 10,10 0 0 0 14,-14 230,230 0 1 1 220,0 10,10 0 0 0 14,14 210,210 0 1 1 -74,201 10,10 0 0 0 -20,0 z"
         fill="#000000"
         id="path9216" />
    </symbol>
    <symbol
       id="VC7"
       viewBox="-500 -500 1000 1000"
       preserveAspectRatio="xMinYMid">
      <path
         d="M -265,-320 V -460 H 265 C 135,-200 -90,100 -90,460"
         stroke="#000000"
         stroke-width="80"
         stroke-linecap="square"
         stroke-miterlimit="1.5"
         fill="none"
         id="path9219" />
    </symbol>
  </defs>
  <rect
     width="239"
     height="335"
     x="-71.5"
     y="-119.5"
     rx="12"
     ry="12"
     fill="#ffffff"
     stroke="#000000"
     id="rect9224"
     transform="rotate(-90)" />
  <use
     xlink:href="#VC7"
     height="32"
     width="32"
     x="-114.4"
     y="-156"
     id="use9226"
     transform="rotate(-90,0,-48)" />
  <use
     xlink:href="#SC7"
     height="26.768999"
     width="26.768999"
     x="-111.784"
     y="-119"
     id="use9228"
     transform="rotate(-90,0,-48)" />
  <use
     xlink:href="#SC7"
     height="70"
     width="70"
     x="-87.500999"
     y="-135.588"
     id="use9230"
     transform="rotate(-90,0,-48)" />
  <use
     xlink:href="#SC7"
     height="70"
     width="70"
     x="17.500999"
     y="-135.588"
     id="use9232"
     transform="rotate(-90,0,-48)" />
  <use
     xlink:href="#SC7"
     height="70"
     width="70"
     x="-87.500999"
     y="-35"
     id="use9234"
     transform="rotate(-90,0,-48)" />
  <use
     xlink:href="#SC7"
     height="70"
     width="70"
     x="17.500999"
     y="-35"
     id="use9236"
     transform="rotate(-90,0,-48)" />
  <use
     xlink:href="#SC7"
     height="70"
     width="70"
     x="-35"
     y="-85.293999"
     id="use9238"
     transform="rotate(-90,0,-48)" />
  <g
     transform="rotate(90,48,0)"
     id="g9248">
    <use
       xlink:href="#VC7"
       height="32"
       width="32"
       x="-114.4"
       y="-156"
       id="use9240" />
    <use
       xlink:href="#SC7"
       height="26.768999"
       width="26.768999"
       x="-111.784"
       y="-119"
       id="use9242" />
    <use
       xlink:href="#SC7"
       height="70"
       width="70"
       x="-87.500999"
       y="-135.588"
       id="use9244" />
    <use
       xlink:href="#SC7"
       height="70"
       width="70"
       x="17.500999"
       y="-135.588"
       id="use9246" />
  </g>
</svg>
