<?xml version="1.0" encoding="UTF-8" standalone="no"?>
<svg
   class="card"
   face="TC"
   height="2.5in"
   preserveAspectRatio="none"
   viewBox="-120 -168 336 240"
   width="3.5in"
   version="1.1"
   id="svg526"
   sodipodi:docname="TCr.svg"
   inkscape:version="1.1.2 (b8e25be833, 2022-02-05)"
   xmlns:inkscape="http://www.inkscape.org/namespaces/inkscape"
   xmlns:sodipodi="http://sodipodi.sourceforge.net/DTD/sodipodi-0.dtd"
   xmlns:xlink="http://www.w3.org/1999/xlink"
   xmlns="http://www.w3.org/2000/svg"
   xmlns:svg="http://www.w3.org/2000/svg">
  <sodipodi:namedview
     id="namedview528"
     pagecolor="#ffffff"
     bordercolor="#666666"
     borderopacity="1.0"
     inkscape:pageshadow="2"
     inkscape:pageopacity="0.0"
     inkscape:pagecheckerboard="0"
     inkscape:document-units="in"
     showgrid="false"
     inkscape:zoom="1.4761905"
     inkscape:cx="168.33871"
     inkscape:cy="119.90323"
     inkscape:window-width="1366"
     inkscape:window-height="705"
     inkscape:window-x="-8"
     inkscape:window-y="-8"
     inkscape:window-maximized="1"
     inkscape:current-layer="svg526" />
  <defs
     id="defs492">
    <symbol
       id="SCT"
       viewBox="-600 -600 1200 1200"
       preserveAspectRatio="xMinYMid">
      <path
         d="m 30,150 c 5,235 55,250 100,350 H -130 C -85,400 -35,385 -30,150 a 10,10 0 0 0 -20,0 210,210 0 1 1 -74,-201 10,10 0 0 0 14,-14 230,230 0 1 1 220,0 10,10 0 0 0 14,14 210,210 0 1 1 -74,201 10,10 0 0 0 -20,0 z"
         fill="#000000"
         id="path486" />
    </symbol>
    <symbol
       id="VCT"
       viewBox="-500 -500 1000 1000"
       preserveAspectRatio="xMinYMid">
      <path
         d="M -260,430 V -430 M -50,0 v -310 a 150,150 0 0 1 300,0 v 620 a 150,150 0 0 1 -300,0 z"
         stroke="#000000"
         stroke-width="80"
         stroke-linecap="square"
         stroke-miterlimit="1.5"
         fill="none"
         id="path489" />
    </symbol>
  </defs>
  <rect
     width="239"
     height="335"
     x="-167.5"
     y="-215.5"
     rx="12"
     ry="12"
     fill="#ffffff"
     stroke="#000000"
     id="rect494"
     transform="rotate(90)" />
  <use
     xlink:href="#VCT"
     height="32"
     width="32"
     x="-114.4"
     y="-156"
     id="use496"
     transform="rotate(90,48,0)" />
  <use
     xlink:href="#SCT"
     height="26.768999"
     width="26.768999"
     x="-111.784"
     y="-119"
     id="use498"
     transform="rotate(90,48,0)" />
  <use
     xlink:href="#SCT"
     height="70"
     width="70"
     x="-87.500999"
     y="-135.588"
     id="use500"
     transform="rotate(90,48,0)" />
  <use
     xlink:href="#SCT"
     height="70"
     width="70"
     x="17.500999"
     y="-135.588"
     id="use502"
     transform="rotate(90,48,0)" />
  <use
     xlink:href="#SCT"
     height="70"
     width="70"
     x="-87.500999"
     y="-68.528999"
     id="use504"
     transform="rotate(90,48,0)" />
  <use
     xlink:href="#SCT"
     height="70"
     width="70"
     x="17.500999"
     y="-68.528999"
     id="use506"
     transform="rotate(90,48,0)" />
  <use
     xlink:href="#SCT"
     height="70"
     width="70"
     x="-35"
     y="-102.058"
     id="use508"
     transform="rotate(90,48,0)" />
  <g
     transform="rotate(-90,0,-48)"
     id="g524">
    <use
       xlink:href="#VCT"
       height="32"
       width="32"
       x="-114.4"
       y="-156"
       id="use510" />
    <use
       xlink:href="#SCT"
       height="26.768999"
       width="26.768999"
       x="-111.784"
       y="-119"
       id="use512" />
    <use
       xlink:href="#SCT"
       height="70"
       width="70"
       x="-87.500999"
       y="-135.588"
       id="use514" />
    <use
       xlink:href="#SCT"
       height="70"
       width="70"
       x="17.500999"
       y="-135.588"
       id="use516" />
    <use
       xlink:href="#SCT"
       height="70"
       width="70"
       x="-87.500999"
       y="-68.528999"
       id="use518" />
    <use
       xlink:href="#SCT"
       height="70"
       width="70"
       x="17.500999"
       y="-68.528999"
       id="use520" />
    <use
       xlink:href="#SCT"
       height="70"
       width="70"
       x="-35"
       y="-102.058"
       id="use522" />
  </g>
</svg>
